<mxfile host="Electron" modified="2024-01-12T09:06:43.450Z" agent="Mozilla/5.0 (Windows NT 10.0; Win64; x64) AppleWebKit/537.36 (KHTML, like Gecko) draw.io/22.1.18 Chrome/120.0.6099.199 Electron/28.1.2 Safari/537.36" etag="aWT1UagADxbVuyE74ed6" version="22.1.18" type="device">
  <diagram name="Page-1" id="YzqTZFOafvjBBG0pVXUg">
    <mxGraphModel dx="1050" dy="629" grid="1" gridSize="10" guides="1" tooltips="1" connect="1" arrows="1" fold="1" page="1" pageScale="1" pageWidth="827" pageHeight="1169" math="0" shadow="0">
      <root>
        <mxCell id="0" />
        <mxCell id="1" parent="0" />
        <mxCell id="2WT5YcPxAXWPwMGSk-_s-2" value="Client" style="shape=umlActor;verticalLabelPosition=bottom;verticalAlign=top;html=1;" vertex="1" parent="1">
          <mxGeometry x="160" y="240" width="30" height="60" as="geometry" />
        </mxCell>
        <mxCell id="2WT5YcPxAXWPwMGSk-_s-4" value="" style="endArrow=none;html=1;" edge="1" parent="1">
          <mxGeometry width="50" height="50" relative="1" as="geometry">
            <mxPoint x="200" y="279.17" as="sourcePoint" />
            <mxPoint x="280" y="279.17" as="targetPoint" />
          </mxGeometry>
        </mxCell>
        <mxCell id="2WT5YcPxAXWPwMGSk-_s-5" value="" style="endArrow=none;html=1;" edge="1" parent="1">
          <mxGeometry width="50" height="50" relative="1" as="geometry">
            <mxPoint x="280" y="460" as="sourcePoint" />
            <mxPoint x="280" y="60" as="targetPoint" />
          </mxGeometry>
        </mxCell>
        <mxCell id="2WT5YcPxAXWPwMGSk-_s-6" value="" style="endArrow=classic;html=1;" edge="1" parent="1">
          <mxGeometry width="50" height="50" relative="1" as="geometry">
            <mxPoint x="280" y="100" as="sourcePoint" />
            <mxPoint x="360" y="100" as="targetPoint" />
          </mxGeometry>
        </mxCell>
        <mxCell id="2WT5YcPxAXWPwMGSk-_s-9" value="" style="endArrow=classic;html=1;" edge="1" parent="1">
          <mxGeometry width="50" height="50" relative="1" as="geometry">
            <mxPoint x="280" y="140" as="sourcePoint" />
            <mxPoint x="360" y="140" as="targetPoint" />
          </mxGeometry>
        </mxCell>
        <mxCell id="2WT5YcPxAXWPwMGSk-_s-11" value="" style="endArrow=classic;html=1;" edge="1" parent="1">
          <mxGeometry width="50" height="50" relative="1" as="geometry">
            <mxPoint x="280" y="180" as="sourcePoint" />
            <mxPoint x="360" y="180" as="targetPoint" />
          </mxGeometry>
        </mxCell>
        <mxCell id="2WT5YcPxAXWPwMGSk-_s-13" value="" style="endArrow=classic;html=1;" edge="1" parent="1">
          <mxGeometry width="50" height="50" relative="1" as="geometry">
            <mxPoint x="280" y="220" as="sourcePoint" />
            <mxPoint x="360" y="220" as="targetPoint" />
          </mxGeometry>
        </mxCell>
        <mxCell id="2WT5YcPxAXWPwMGSk-_s-15" value="" style="endArrow=classic;html=1;" edge="1" parent="1">
          <mxGeometry width="50" height="50" relative="1" as="geometry">
            <mxPoint x="280" y="260" as="sourcePoint" />
            <mxPoint x="360" y="260" as="targetPoint" />
          </mxGeometry>
        </mxCell>
        <mxCell id="2WT5YcPxAXWPwMGSk-_s-29" value="S&#39;inscrire" style="rounded=1;whiteSpace=wrap;html=1;" vertex="1" parent="1">
          <mxGeometry x="360" y="80" width="160" height="30" as="geometry" />
        </mxCell>
        <mxCell id="2WT5YcPxAXWPwMGSk-_s-30" value="Se connecter / déconnecter" style="rounded=1;whiteSpace=wrap;html=1;" vertex="1" parent="1">
          <mxGeometry x="360" y="120" width="160" height="30" as="geometry" />
        </mxCell>
        <mxCell id="2WT5YcPxAXWPwMGSk-_s-31" value="Voir les produits (robes)" style="rounded=1;whiteSpace=wrap;html=1;" vertex="1" parent="1">
          <mxGeometry x="360" y="160" width="160" height="30" as="geometry" />
        </mxCell>
        <mxCell id="2WT5YcPxAXWPwMGSk-_s-32" value="Voir le détail d&#39;un produit" style="rounded=1;whiteSpace=wrap;html=1;" vertex="1" parent="1">
          <mxGeometry x="360" y="200" width="160" height="30" as="geometry" />
        </mxCell>
        <mxCell id="2WT5YcPxAXWPwMGSk-_s-33" value="Ajouter des produits au panier et voir son panier" style="rounded=1;whiteSpace=wrap;html=1;" vertex="1" parent="1">
          <mxGeometry x="360" y="240" width="160" height="30" as="geometry" />
        </mxCell>
        <mxCell id="2WT5YcPxAXWPwMGSk-_s-34" value="Passer une commande" style="rounded=1;whiteSpace=wrap;html=1;" vertex="1" parent="1">
          <mxGeometry x="360" y="280" width="160" height="30" as="geometry" />
        </mxCell>
        <mxCell id="2WT5YcPxAXWPwMGSk-_s-35" value="" style="endArrow=classic;html=1;" edge="1" parent="1">
          <mxGeometry width="50" height="50" relative="1" as="geometry">
            <mxPoint x="280" y="300" as="sourcePoint" />
            <mxPoint x="360" y="300" as="targetPoint" />
          </mxGeometry>
        </mxCell>
        <mxCell id="2WT5YcPxAXWPwMGSk-_s-36" value="" style="endArrow=classic;html=1;" edge="1" parent="1">
          <mxGeometry width="50" height="50" relative="1" as="geometry">
            <mxPoint x="280" y="340" as="sourcePoint" />
            <mxPoint x="360" y="340" as="targetPoint" />
          </mxGeometry>
        </mxCell>
        <mxCell id="2WT5YcPxAXWPwMGSk-_s-37" value="" style="endArrow=classic;html=1;" edge="1" parent="1">
          <mxGeometry width="50" height="50" relative="1" as="geometry">
            <mxPoint x="280" y="380" as="sourcePoint" />
            <mxPoint x="360" y="380" as="targetPoint" />
          </mxGeometry>
        </mxCell>
        <mxCell id="2WT5YcPxAXWPwMGSk-_s-38" value="Voir le détail d&#39;une commande" style="rounded=1;whiteSpace=wrap;html=1;" vertex="1" parent="1">
          <mxGeometry x="360" y="320" width="160" height="30" as="geometry" />
        </mxCell>
        <mxCell id="2WT5YcPxAXWPwMGSk-_s-39" value="Noter un produit" style="rounded=1;whiteSpace=wrap;html=1;fillColor=#ffe6cc;strokeColor=#d79b00;" vertex="1" parent="1">
          <mxGeometry x="360" y="360" width="160" height="30" as="geometry" />
        </mxCell>
        <mxCell id="2WT5YcPxAXWPwMGSk-_s-40" value="" style="endArrow=classic;html=1;" edge="1" parent="1">
          <mxGeometry width="50" height="50" relative="1" as="geometry">
            <mxPoint x="280" y="420" as="sourcePoint" />
            <mxPoint x="360" y="420" as="targetPoint" />
          </mxGeometry>
        </mxCell>
        <mxCell id="2WT5YcPxAXWPwMGSk-_s-41" value="" style="endArrow=classic;html=1;" edge="1" parent="1">
          <mxGeometry width="50" height="50" relative="1" as="geometry">
            <mxPoint x="280" y="460" as="sourcePoint" />
            <mxPoint x="360" y="460" as="targetPoint" />
          </mxGeometry>
        </mxCell>
        <mxCell id="2WT5YcPxAXWPwMGSk-_s-42" value="Choisir un mode d&#39;expédition / adresse de livraison" style="rounded=1;whiteSpace=wrap;html=1;fillColor=#ffe6cc;strokeColor=#d79b00;" vertex="1" parent="1">
          <mxGeometry x="360" y="400" width="160" height="30" as="geometry" />
        </mxCell>
        <mxCell id="2WT5YcPxAXWPwMGSk-_s-43" value="Payer / choisir un mode de paiement" style="rounded=1;whiteSpace=wrap;html=1;fillColor=#f5f5f5;fontColor=#333333;strokeColor=#666666;" vertex="1" parent="1">
          <mxGeometry x="360" y="440" width="160" height="30" as="geometry" />
        </mxCell>
        <mxCell id="2WT5YcPxAXWPwMGSk-_s-48" value="Gérer son compte client" style="rounded=1;whiteSpace=wrap;html=1;" vertex="1" parent="1">
          <mxGeometry x="360" y="40" width="160" height="30" as="geometry" />
        </mxCell>
        <mxCell id="2WT5YcPxAXWPwMGSk-_s-49" value="" style="endArrow=classic;html=1;" edge="1" parent="1">
          <mxGeometry width="50" height="50" relative="1" as="geometry">
            <mxPoint x="280" y="60" as="sourcePoint" />
            <mxPoint x="360" y="60" as="targetPoint" />
          </mxGeometry>
        </mxCell>
        <mxCell id="2WT5YcPxAXWPwMGSk-_s-50" value="Administrateur" style="shape=umlActor;verticalLabelPosition=bottom;verticalAlign=top;html=1;" vertex="1" parent="1">
          <mxGeometry x="150" y="610" width="30" height="60" as="geometry" />
        </mxCell>
        <mxCell id="2WT5YcPxAXWPwMGSk-_s-55" value="Gérer les utilisateurs" style="rounded=1;whiteSpace=wrap;html=1;" vertex="1" parent="1">
          <mxGeometry x="360" y="540" width="160" height="30" as="geometry" />
        </mxCell>
        <mxCell id="2WT5YcPxAXWPwMGSk-_s-57" value="" style="endArrow=none;html=1;" edge="1" parent="1">
          <mxGeometry width="50" height="50" relative="1" as="geometry">
            <mxPoint x="200" y="640" as="sourcePoint" />
            <mxPoint x="280" y="640" as="targetPoint" />
          </mxGeometry>
        </mxCell>
        <mxCell id="2WT5YcPxAXWPwMGSk-_s-58" value="" style="endArrow=none;html=1;" edge="1" parent="1">
          <mxGeometry width="50" height="50" relative="1" as="geometry">
            <mxPoint x="280" y="720" as="sourcePoint" />
            <mxPoint x="280" y="560" as="targetPoint" />
          </mxGeometry>
        </mxCell>
        <mxCell id="2WT5YcPxAXWPwMGSk-_s-59" value="" style="endArrow=classic;html=1;" edge="1" parent="1">
          <mxGeometry width="50" height="50" relative="1" as="geometry">
            <mxPoint x="280" y="560" as="sourcePoint" />
            <mxPoint x="360" y="560" as="targetPoint" />
          </mxGeometry>
        </mxCell>
        <mxCell id="2WT5YcPxAXWPwMGSk-_s-60" value="" style="endArrow=classic;html=1;" edge="1" parent="1">
          <mxGeometry width="50" height="50" relative="1" as="geometry">
            <mxPoint x="280" y="600" as="sourcePoint" />
            <mxPoint x="360" y="600" as="targetPoint" />
          </mxGeometry>
        </mxCell>
        <mxCell id="2WT5YcPxAXWPwMGSk-_s-61" value="" style="endArrow=classic;html=1;" edge="1" parent="1">
          <mxGeometry width="50" height="50" relative="1" as="geometry">
            <mxPoint x="280" y="640" as="sourcePoint" />
            <mxPoint x="360" y="640" as="targetPoint" />
          </mxGeometry>
        </mxCell>
        <mxCell id="2WT5YcPxAXWPwMGSk-_s-62" value="" style="endArrow=classic;html=1;" edge="1" parent="1">
          <mxGeometry width="50" height="50" relative="1" as="geometry">
            <mxPoint x="280" y="680" as="sourcePoint" />
            <mxPoint x="360" y="680" as="targetPoint" />
          </mxGeometry>
        </mxCell>
        <mxCell id="2WT5YcPxAXWPwMGSk-_s-63" value="" style="endArrow=classic;html=1;" edge="1" parent="1">
          <mxGeometry width="50" height="50" relative="1" as="geometry">
            <mxPoint x="280" y="720" as="sourcePoint" />
            <mxPoint x="360" y="720" as="targetPoint" />
          </mxGeometry>
        </mxCell>
        <mxCell id="2WT5YcPxAXWPwMGSk-_s-65" value="Gérer les stocks" style="rounded=1;whiteSpace=wrap;html=1;fillColor=#ffe6cc;strokeColor=#d79b00;" vertex="1" parent="1">
          <mxGeometry x="360" y="580" width="160" height="30" as="geometry" />
        </mxCell>
        <mxCell id="2WT5YcPxAXWPwMGSk-_s-66" value="Gérer les commandes" style="rounded=1;whiteSpace=wrap;html=1;" vertex="1" parent="1">
          <mxGeometry x="360" y="620" width="160" height="30" as="geometry" />
        </mxCell>
        <mxCell id="2WT5YcPxAXWPwMGSk-_s-67" value="Gérer les produits" style="rounded=1;whiteSpace=wrap;html=1;" vertex="1" parent="1">
          <mxGeometry x="360" y="660" width="160" height="30" as="geometry" />
        </mxCell>
        <mxCell id="2WT5YcPxAXWPwMGSk-_s-68" value="Gérer les types / catégories de produits" style="rounded=1;whiteSpace=wrap;html=1;" vertex="1" parent="1">
          <mxGeometry x="360" y="700" width="160" height="30" as="geometry" />
        </mxCell>
      </root>
    </mxGraphModel>
  </diagram>
</mxfile>
